<?xml version="1.0" encoding="utf-8"?>
<!-- Generator: Adobe Illustrator 27.8.1, SVG Export Plug-In . SVG Version: 6.00 Build 0)  -->
<svg version="1.1" xmlns="http://www.w3.org/2000/svg" xmlns:xlink="http://www.w3.org/1999/xlink" x="0px" y="0px"
	 viewBox="0 0 1250 500" style="enable-background:new 0 0 1250 500;" xml:space="preserve">
<style type="text/css">
	.st0{fill:#FFFFFF;}
	.st1{fill:#FFFFFF;stroke:#000000;stroke-width:8;stroke-miterlimit:10;}
	.st2{display:none;}
	.st3{stroke:#FFFFFF;stroke-width:8;stroke-miterlimit:10;}
</style>
<g id="Main">
	<g>
		<circle cx="241.21" cy="250.13" r="218.79"/>
	</g>
	<g>
		<path class="st0" d="M237.49,353.76l-24.98-117.6h-1.12l-24.98,117.6H118.2L73.01,160.65h64.56l22.17,109.47h1.12l21.89-109.47
			h61.19l23.3,109.47h1.12l20.77-109.47h61.75L305.7,353.76H237.49z"/>
	</g>
	<g>
		<polygon class="st0" points="303.29,353.76 410.82,353.76 410.82,305.52 311.02,305.52 		"/>
	</g>
	<g>
		<path class="st1" d="M524.46,248.51c-2.55,0-4.58-0.75-6.08-2.25c-1.5-1.5-2.4-3.22-2.7-5.17L491.16,97.31
			c-0.15-0.3-0.23-0.6-0.23-0.9c0-0.3,0-0.52,0-0.67c0-1.2,0.49-2.29,1.46-3.26c0.97-0.97,2.06-1.46,3.26-1.46h27.9
			c4.2,0,6.53,1.65,6.98,4.95l14.62,87.97l16.2-51.97c0.45-1.2,1.2-2.51,2.25-3.94c1.05-1.42,2.77-2.14,5.17-2.14h16.2
			c2.55,0,4.35,0.71,5.4,2.14c1.05,1.43,1.72,2.74,2.02,3.94l16.2,51.75l14.62-87.75c0.45-3.3,2.77-4.95,6.98-4.95h27.9
			c1.35,0,2.48,0.49,3.38,1.46c0.9,0.98,1.35,2.06,1.35,3.26c0,0.15,0,0.38,0,0.67c0,0.3,0,0.6,0,0.9l-24.53,143.78
			c-0.3,1.95-1.2,3.68-2.7,5.17c-1.5,1.5-3.53,2.25-6.08,2.25h-21.38c-2.55,0-4.5-0.67-5.85-2.02c-1.35-1.35-2.25-2.62-2.7-3.83
			l-22.73-64.35l-22.73,64.35c-0.45,1.2-1.31,2.48-2.59,3.83c-1.28,1.35-3.19,2.02-5.74,2.02H524.46z"/>
		<path class="st1" d="M700.63,248.51c-1.65,0-3-0.52-4.05-1.58c-1.05-1.05-1.58-2.4-1.58-4.05V96.64c0-1.65,0.52-3,1.58-4.05
			c1.05-1.05,2.4-1.58,4.05-1.58h29.03c1.65,0,3,0.53,4.05,1.58c1.05,1.05,1.58,2.4,1.58,4.05v54.23h55.57V96.64
			c0-1.65,0.52-3,1.58-4.05c1.05-1.05,2.4-1.58,4.05-1.58h29.03c1.65,0,3,0.53,4.05,1.58c1.05,1.05,1.58,2.4,1.58,4.05v146.25
			c0,1.65-0.53,3-1.58,4.05c-1.05,1.05-2.4,1.58-4.05,1.58h-29.03c-1.65,0-3-0.52-4.05-1.58c-1.05-1.05-1.58-2.4-1.58-4.05v-56.02
			h-55.57v56.02c0,1.65-0.53,3-1.58,4.05c-1.05,1.05-2.4,1.58-4.05,1.58H700.63z"/>
		<path class="st1" d="M877.25,248.51c-1.65,0-3-0.52-4.05-1.58c-1.05-1.05-1.58-2.4-1.58-4.05V96.64c0-1.65,0.52-3,1.58-4.05
			c1.05-1.05,2.4-1.58,4.05-1.58h30.15c1.65,0,3,0.53,4.05,1.58c1.05,1.05,1.58,2.4,1.58,4.05v146.25c0,1.65-0.53,3-1.58,4.05
			c-1.05,1.05-2.4,1.58-4.05,1.58H877.25z"/>
		<path class="st1" d="M993.8,248.51c-1.65,0-3-0.52-4.05-1.58c-1.05-1.05-1.57-2.4-1.57-4.05V126.34h-40.05
			c-1.65,0-3-0.56-4.05-1.69c-1.05-1.12-1.58-2.44-1.58-3.94V96.64c0-1.65,0.52-3,1.58-4.05c1.05-1.05,2.4-1.58,4.05-1.58h121.05
			c1.65,0,3,0.53,4.05,1.58c1.05,1.05,1.58,2.4,1.58,4.05v24.08c0,1.5-0.53,2.81-1.58,3.94c-1.05,1.12-2.4,1.69-4.05,1.69h-40.05
			v116.55c0,1.65-0.53,3-1.57,4.05c-1.05,1.05-2.4,1.58-4.05,1.58H993.8z"/>
		<path class="st1" d="M1109.9,248.51c-1.65,0-3-0.52-4.05-1.58c-1.05-1.05-1.58-2.4-1.58-4.05V96.64c0-1.65,0.52-3,1.58-4.05
			c1.05-1.05,2.4-1.58,4.05-1.58h105.08c1.65,0,3,0.53,4.05,1.58c1.05,1.05,1.58,2.4,1.58,4.05v21.15c0,1.65-0.53,3-1.58,4.05
			c-1.05,1.05-2.4,1.57-4.05,1.57h-71.78v30.38h66.83c1.65,0,3,0.56,4.05,1.69c1.05,1.12,1.58,2.51,1.58,4.16v19.58
			c0,1.5-0.53,2.81-1.58,3.94c-1.05,1.12-2.4,1.69-4.05,1.69h-66.83v31.27h73.58c1.65,0,3,0.53,4.05,1.57
			c1.05,1.05,1.58,2.4,1.58,4.05v21.15c0,1.65-0.53,3-1.58,4.05c-1.05,1.05-2.4,1.58-4.05,1.58H1109.9z"/>
	</g>
	<g>
		<path d="M502.16,402.11c-1.1,0-2-0.35-2.7-1.05c-0.7-0.7-1.05-1.6-1.05-2.7v-97.5c0-1.1,0.35-2,1.05-2.7
			c0.7-0.7,1.6-1.05,2.7-1.05h19.8c1,0,1.88,0.35,2.62,1.05c0.75,0.7,1.12,1.6,1.12,2.7v78.6h45.3c1.1,0,2.02,0.38,2.77,1.12
			s1.12,1.68,1.12,2.77v15c0,1.1-0.38,2-1.12,2.7c-0.75,0.7-1.68,1.05-2.77,1.05H502.16z"/>
		<path d="M581.96,402.11c-0.8,0-1.53-0.32-2.17-0.97c-0.65-0.65-0.98-1.37-0.98-2.17c0-0.5,0.05-0.95,0.15-1.35l35.25-96.3
			c0.3-1.1,0.92-2.07,1.88-2.92c0.95-0.85,2.27-1.28,3.98-1.28h22.2c1.7,0,3.02,0.43,3.98,1.28c0.95,0.85,1.58,1.83,1.88,2.92
			l35.1,96.3c0.2,0.4,0.3,0.85,0.3,1.35c0,0.8-0.33,1.53-0.97,2.17c-0.65,0.65-1.42,0.97-2.33,0.97h-18.45
			c-1.5,0-2.62-0.38-3.38-1.12s-1.23-1.42-1.42-2.02l-5.85-15.3h-40.05l-5.7,15.3c-0.2,0.6-0.65,1.27-1.35,2.02
			c-0.7,0.75-1.9,1.12-3.6,1.12H581.96z M617.21,362.06h27.9l-14.1-39.6L617.21,362.06z"/>
		<path d="M699.1,402.11c-1.1,0-2-0.35-2.7-1.05c-0.7-0.7-1.05-1.6-1.05-2.7v-97.5c0-1.1,0.35-2,1.05-2.7c0.7-0.7,1.6-1.05,2.7-1.05
			h45.75c8.6,0,15.65,1.2,21.15,3.6c5.5,2.4,9.57,5.83,12.22,10.27c2.65,4.45,3.97,9.73,3.97,15.83c0,3.6-0.67,6.78-2.02,9.53
			c-1.35,2.75-3,5.02-4.95,6.82c-1.95,1.8-3.78,3.1-5.47,3.9c3.8,1.8,7.17,4.75,10.12,8.85c2.95,4.1,4.42,8.9,4.42,14.4
			c0,6.6-1.48,12.28-4.42,17.03c-2.95,4.75-7.25,8.4-12.9,10.95c-5.65,2.55-12.58,3.83-20.78,3.83H699.1z M722.2,338.81h19.65
			c4.1,0,7.17-1.05,9.22-3.15c2.05-2.1,3.08-4.8,3.08-8.1c0-3.2-1.03-5.82-3.08-7.88c-2.05-2.05-5.12-3.08-9.22-3.08H722.2V338.81z
			 M722.2,382.61h21c4.3,0,7.55-1.25,9.75-3.75c2.2-2.5,3.3-5.35,3.3-8.55c0-3.5-1.12-6.45-3.38-8.85c-2.25-2.4-5.48-3.6-9.68-3.6
			h-21V382.61z"/>
		<path d="M804.7,402.11c-1.1,0-2-0.35-2.7-1.05c-0.7-0.7-1.05-1.6-1.05-2.7v-97.5c0-1.1,0.35-2,1.05-2.7c0.7-0.7,1.6-1.05,2.7-1.05
			h70.05c1.1,0,2,0.35,2.7,1.05c0.7,0.7,1.05,1.6,1.05,2.7v14.1c0,1.1-0.35,2-1.05,2.7c-0.7,0.7-1.6,1.05-2.7,1.05H826.9v20.25
			h44.55c1.1,0,2,0.38,2.7,1.12c0.7,0.75,1.05,1.68,1.05,2.77v13.05c0,1-0.35,1.88-1.05,2.62c-0.7,0.75-1.6,1.12-2.7,1.12H826.9
			v20.85h49.05c1.1,0,2,0.35,2.7,1.05c0.7,0.7,1.05,1.6,1.05,2.7v14.1c0,1.1-0.35,2-1.05,2.7c-0.7,0.7-1.6,1.05-2.7,1.05H804.7z"/>
		<path d="M900.55,402.11c-1.1,0-2-0.35-2.7-1.05c-0.7-0.7-1.05-1.6-1.05-2.7v-97.5c0-1.1,0.35-2,1.05-2.7
			c0.7-0.7,1.6-1.05,2.7-1.05h19.8c1,0,1.88,0.35,2.62,1.05c0.75,0.7,1.12,1.6,1.12,2.7v78.6h45.3c1.1,0,2.03,0.38,2.78,1.12
			s1.12,1.68,1.12,2.77v15c0,1.1-0.38,2-1.12,2.7c-0.75,0.7-1.68,1.05-2.78,1.05H900.55z"/>
		<path d="M1030.45,402.11c-1.7,0-3.05-0.5-4.05-1.5c-1-1-1.6-2.15-1.8-3.45l-16.35-95.85c-0.1-0.2-0.15-0.4-0.15-0.6
			c0-0.2,0-0.35,0-0.45c0-0.8,0.32-1.52,0.97-2.17c0.65-0.65,1.37-0.98,2.17-0.98h18.6c2.8,0,4.35,1.1,4.65,3.3l9.75,58.65
			l10.8-34.65c0.3-0.8,0.8-1.67,1.5-2.62c0.7-0.95,1.85-1.42,3.45-1.42h10.8c1.7,0,2.9,0.48,3.6,1.42c0.7,0.95,1.15,1.83,1.35,2.62
			l10.8,34.5l9.75-58.5c0.3-2.2,1.85-3.3,4.65-3.3h18.6c0.9,0,1.65,0.33,2.25,0.98c0.6,0.65,0.9,1.38,0.9,2.17c0,0.1,0,0.25,0,0.45
			c0,0.2,0,0.4,0,0.6l-16.35,95.85c-0.2,1.3-0.8,2.45-1.8,3.45c-1,1-2.35,1.5-4.05,1.5h-14.25c-1.7,0-3-0.45-3.9-1.35
			c-0.9-0.9-1.5-1.75-1.8-2.55l-15.15-42.9l-15.15,42.9c-0.3,0.8-0.88,1.65-1.72,2.55c-0.85,0.9-2.13,1.35-3.83,1.35H1030.45z"/>
		<path d="M1141.9,402.11c-1.1,0-2-0.35-2.7-1.05c-0.7-0.7-1.05-1.6-1.05-2.7v-97.5c0-1.1,0.35-2,1.05-2.7
			c0.7-0.7,1.6-1.05,2.7-1.05h42c8.3,0,15.53,1.28,21.67,3.83c6.15,2.55,10.95,6.38,14.4,11.47c3.45,5.1,5.17,11.55,5.17,19.35
			c0,7.7-1.72,14.05-5.17,19.05c-3.45,5-8.25,8.7-14.4,11.1c-6.15,2.4-13.38,3.6-21.67,3.6h-17.85v32.85c0,1.1-0.38,2-1.12,2.7
			c-0.75,0.7-1.68,1.05-2.78,1.05H1141.9z M1165.6,344.81h17.55c4.3,0,7.72-1.1,10.28-3.3c2.55-2.2,3.82-5.55,3.82-10.05
			c0-3.8-1.1-7-3.3-9.6c-2.2-2.6-5.8-3.9-10.8-3.9h-17.55V344.81z"/>
	</g>
</g>
<g id="Inverted">
</g>
<g id="Logo_Main">
</g>
<g id="Logo_Inverted">
</g>
</svg>
